HIERARCHY
ROOT Hips
{
  OFFSET 0 0 0
  CHANNELS 6 Xposition Yposition Zposition Zrotation Yrotation Xrotation
  JOINT LeftThigh
  {
    OFFSET 8.409438 0 -5.917753
    CHANNELS 3 Zrotation Yrotation Xrotation
    JOINT LeftLeg
    {
      OFFSET 0 0 -42.358652
      CHANNELS 3 Zrotation Yrotation Xrotation
      JOINT LeftFoot
      {
        OFFSET 0 0 -39.357303
        CHANNELS 3 Zrotation Yrotation Xrotation
      }
    }
  }
  JOINT RightThigh
  {
    OFFSET -8.409438 0 -5.917753
    CHANNELS 3 Zrotation Yrotation Xrotation
    JOINT RightLeg
    {
      OFFSET 0 0 -42.358652
      CHANNELS 3 Zrotation Yrotation Xrotation
      JOINT RightFoot
      {
        OFFSET 0 0 -39.357303
        CHANNELS 3 Zrotation Yrotation Xrotation
      }
    }
  }
  JOINT SpineLow
  {
    OFFSET 0 0 4.719101
    CHANNELS 3 Zrotation Yrotation Xrotation
    JOINT SpineMid
    {
      OFFSET 0 0 12.899191
      CHANNELS 3 Zrotation Yrotation Xrotation
      JOINT Chest
      {
        OFFSET 0 0 12.899191
        CHANNELS 3 Zrotation Yrotation Xrotation
        JOINT LeftShoulder
        {
          OFFSET 7.550562 1.41573 9.438202
          CHANNELS 3 Zrotation Yrotation Xrotation
          JOINT LeftArm
          {
            OFFSET 9.155056 0 4.247191
            CHANNELS 3 Zrotation Yrotation Xrotation
            JOINT LeftForearm
            {
              OFFSET 0 0 25.771955
              CHANNELS 3 Zrotation Yrotation Xrotation
              JOINT LeftHand
              {
                OFFSET 0 0 25.197169
                CHANNELS 3 Zrotation Yrotation Xrotation
              }
            }
          }
        }
        JOINT RightShoulder
        {
          OFFSET -7.550562 1.41573 9.438202
          CHANNELS 3 Zrotation Yrotation Xrotation
          JOINT RightArm
          {
            OFFSET -9.155056 0 4.247191
            CHANNELS 3 Zrotation Yrotation Xrotation
            JOINT RightForearm
            {
              OFFSET 0 0 -25.771955
              CHANNELS 3 Zrotation Yrotation Xrotation
              JOINT RightHand
              {
                OFFSET 0 0 -25.197169
                CHANNELS 3 Zrotation Yrotation Xrotation
              }
            }
          }
        }
        JOINT Neck
        {
          OFFSET 0 0 15.101124
          CHANNELS 3 Zrotation Yrotation Xrotation
          JOINT Head
          {
            OFFSET 0 0 11.325843
            CHANNELS 3 Zrotation Yrotation Xrotation
            End Site
            {
              OFFSET 0 0 14.157303
            }
          }
        }
      }
    }
  }
}
MOTION
Frames: 14
Frame Time: 0.0
0.0  101.685394  0.0  1.012504  18.810041  -99.298226  7.463015  -22.312382  1.02717  -13.095461  17.31861  21.573811  1.577438  3.778411  3.319078  -21.502323  14.422831  -3.165649  -2.743292  4.417593  22.127459  4.491615  3.025102  -0.884844  0.1524  -0.720457  3.013387  0.326225  -1.984748  8.234494  0.326225  -1.984748  8.234493  3.348067  21.545167  11.273737  142.365253  20.044557  171.182587  -23.32509  21.682356  93.371066  28.54713  -38.249597  10.357385  21.43342  -8.103921  21.362937  64.897739  49.14794  34.119209  1.258526  11.269755  -22.475304  81.518799  -9.280241  17.757563  -5.873618  -0.402567  -0.05452  -4.405231  -0.301434  -0.044764  
0.0  101.685394  0.0  0.973368  18.780357  -99.349922  7.434179  -22.374948  1.087865  -13.034146  17.315004  21.583525  1.51561  3.766212  3.300897  -21.299767  14.3673  -3.038956  -2.711442  4.419569  22.126834  4.364554  2.996954  -0.911371  0.166309  -0.706347  3.018377  0.365793  -1.948001  8.247729  0.365792  -1.948001  8.24773  3.254253  21.392381  11.163707  142.387202  19.937564  171.211392  -23.388631  21.857951  93.319904  28.460058  -38.308905  10.332006  21.327426  -8.102538  21.251921  64.713302  48.978432  33.979463  0.812486  12.084512  -23.412696  81.993578  -9.194041  17.407692  -5.823133  -0.429014  -0.096143  -4.367397  -0.320879  -0.076203  
0.0  101.685394  0.0  0.943637  18.773639  -99.393165  7.373243  -22.40841  1.117771  -12.985449  17.314812  21.611659  1.510193  3.764694  3.301095  -21.228181  14.348351  -2.962108  -2.746506  4.419244  22.089916  4.360969  2.988492  -0.910824  0.162412  -0.700391  3.019221  0.355876  -1.931269  8.250155  0.355876  -1.931269  8.250154  3.307855  21.373556  11.168654  142.350802  19.892233  171.246981  -23.447711  22.015853  93.288907  28.460715  -38.365001  10.137389  21.281182  -8.022269  21.172783  64.436502  48.826597  33.776158  0.220477  12.865314  -24.587938  82.476934  -9.061287  17.071704  -5.697641  -0.414762  -0.133287  -4.273303  -0.309861  -0.103842  
0.0  101.685394  0.0  0.91009  18.786353  -99.416312  7.403374  -22.463849  1.154519  -13.031516  17.324047  21.592475  1.510061  3.758529  3.287904  -21.120011  14.332478  -2.877665  -2.681758  4.382045  22.080559  4.225042  2.955851  -0.943775  0.159619  -0.682999  3.01934  0.350415  -1.883467  8.250572  0.350415  -1.883467  8.250572  3.258048  21.244827  11.111286  142.344674  19.814083  171.264334  -23.537724  22.211855  93.296424  28.57356  -38.534881  9.751966  21.242763  -8.007714  21.024079  64.344838  48.620761  33.699762  -0.78486  13.519312  -25.988779  82.981373  -8.860196  16.718256  -5.61229  -0.441237  -0.179879  -4.209327  -0.329309  -0.138975  
0.0  101.685394  0.0  0.886324  18.779932  -99.444164  7.430637  -22.48795  1.164879  -13.068291  17.316144  21.594816  1.511007  3.760181  3.286619  -21.057896  14.306677  -2.800417  -2.726837  4.397825  22.023654  4.23756  2.936868  -0.949183  0.14824  -0.676445  3.01998  0.320158  -1.864168  8.252648  0.320158  -1.864168  8.252648  3.274104  21.251649  11.147197  142.36968  19.795477  171.30795  -23.583663  22.393635  93.350299  28.78756  -38.614599  9.140112  21.176099  -7.87715  20.850144  64.398902  48.296796  33.681248  -2.115747  14.117381  -27.624362  83.532879  -8.580656  16.292491  -5.455911  -0.423743  -0.226145  -4.092072  -0.315818  -0.173406  
0.0  101.685394  0.0  0.867004  18.776662  -99.465807  7.492472  -22.515247  1.191105  -13.067464  17.302368  21.62098  1.466265  3.75014  3.257841  -20.9573  14.309164  -2.723825  -2.704631  4.369679  22.006126  4.151659  2.89776  -0.979967  0.136437  -0.657285  3.019839  0.290338  -1.810418  8.252591  0.290338  -1.810418  8.25259  3.168566  21.140641  11.140118  142.474051  19.772667  171.362559  -23.661953  22.589372  93.433935  29.097256  -38.828774  8.278331  21.096426  -7.785263  20.617312  64.764485  47.779157  33.805865  -3.926469  14.683024  -29.460765  84.179288  -8.285406  15.693696  -5.34685  -0.442778  -0.284251  -4.010325  -0.329626  -0.217082  
0.0  101.685394  0.0  0.851221  18.751182  -99.496875  7.566445  -22.557185  1.199796  -13.096355  17.306551  21.624976  1.432394  3.750326  3.252631  -20.872177  14.291805  -2.640563  -2.7647  4.385578  21.946606  4.1761  2.877181  -0.9861  0.11811  -0.648379  3.020405  0.241416  -1.783834  8.254631  0.241416  -1.783834  8.254631  3.177863  21.165324  11.253716  142.60063  19.836218  171.433062  -23.659658  22.849063  93.561807  29.494346  -38.891055  7.294983  21.012561  -7.581151  20.400993  65.053317  47.191941  33.821328  -5.916347  15.289254  -31.575124  84.991136  -7.993351  14.838085  -5.151038  -0.421543  -0.335908  -3.863494  -0.313352  -0.255504  
0.0  101.685394  0.0  0.822796  18.70924  -99.528876  7.737905  -22.658251  1.247639  -13.119561  17.324686  21.629281  1.331221  3.734662  3.200367  -20.805976  14.276683  -2.581612  -2.791225  4.379425  21.922212  4.198408  2.86188  -1.006179  0.087894  -0.623752  3.013934  0.162192  -1.712862  8.237708  0.162192  -1.712862  8.237709  3.077561  21.065858  11.310084  142.762188  19.95096  171.509059  -23.864907  23.216058  93.600008  29.94314  -38.962294  6.274315  20.966371  -7.451024  20.135482  65.714774  46.449916  33.946578  -8.223513  15.864217  -33.802629  85.934152  -7.677663  13.758093  -4.929699  -0.454311  -0.369654  -3.697531  -0.337778  -0.280926  
0.0  101.685394  0.0  0.807855  18.657881  -99.542406  7.856173  -22.713822  1.235092  -13.158878  17.344357  21.624045  1.302256  3.727592  3.191439  -20.700054  14.242809  -2.50899  -2.85196  4.403211  21.868705  4.22711  2.844173  -1.018086  0.057089  -0.613639  3.011182  0.079454  -1.681433  8.230948  0.079454  -1.681433  8.230947  3.119918  21.130246  11.461011  143.036108  20.09874  171.613872  -23.843548  23.576155  93.695626  30.382053  -38.911782  5.352397  20.966016  -7.207744  19.854396  66.077023  45.772513  33.870726  -10.485181  16.39529  -36.339099  87.010377  -7.405548  12.579674  -4.659434  -0.42052  -0.420173  -3.49485  -0.312208  -0.318357  
0.0  101.685394  0.0  0.770034  18.667302  -99.5186  7.997695  -22.797474  1.206616  -13.216031  17.372117  21.604049  1.219661  3.704122  3.147388  -20.76434  14.201262  -2.538784  -2.863349  4.387711  21.857092  4.23075  2.841627  -1.036913  0.024985  -0.588862  3.007363  -0.004986  -1.609839  8.221215  -0.004986  -1.609839  8.221215  2.806134  21.044251  11.435433  143.128293  20.333715  171.708257  -24.310313  24.001212  93.575275  30.683927  -38.839533  4.550323  20.938594  -7.032532  19.422574  66.490473  45.060895  33.724876  -12.941721  16.71352  -39.188973  88.233928  -7.236272  11.45809  -4.445925  -0.460675  -0.505087  -3.334809  -0.341853  -0.382189  
0.0  101.685394  0.0  0.755418  18.638521  -99.517022  8.103853  -22.852417  1.170583  -13.245371  17.397241  21.604135  1.183093  3.692859  3.134795  -20.695192  14.160851  -2.491293  -2.888303  4.395814  21.833521  4.239191  2.848339  -1.04956  0.004008  -0.574554  3.007924  -0.060465  -1.568193  8.223187  -0.060465  -1.568193  8.223187  2.610845  21.101134  11.560832  143.533708  20.557483  171.8103  -24.349814  24.294988  93.637344  30.921324  -38.714581  3.839996  20.783925  -6.751335  18.90538  67.10536  44.328458  33.589264  -15.56312  16.642522  -42.289843  89.484272  -7.053288  10.611743  -4.192873  -0.444013  -0.584469  -3.145067  -0.329019  -0.44142  
0.0  101.685394  0.0  0.725468  18.699347  -99.481363  8.170523  -22.920145  1.113108  -13.199532  17.421118  21.652504  1.053535  3.64908  3.073696  -20.874761  14.125484  -2.570325  -2.866123  4.383067  21.838408  4.298706  2.874521  -1.04694  -0.033501  -0.545905  3.001605  -0.159122  -1.485382  8.206616  -0.159122  -1.485382  8.206616  2.15341  21.006768  11.561192  143.444727  20.979488  171.853093  -24.752412  24.515307  93.628985  31.274613  -38.924842  2.660566  20.678685  -6.512936  18.314378  67.837034  43.601879  33.381235  -18.263289  16.150111  -45.572257  90.557484  -6.623579  10.158881  -4.033425  -0.470298  -0.709333  -3.025603  -0.34806  -0.535128  
0.0  101.685394  0.0  0.720552  18.696456  -99.501193  8.248706  -22.982235  1.103237  -13.232216  17.460943  21.637596  1.016031  3.632274  3.065196  -20.786195  14.090223  -2.510789  -2.888619  4.398342  21.833318  4.290443  2.887623  -1.041983  -0.080814  -0.535671  2.995551  -0.286835  -1.45162  8.191035  -0.286835  -1.45162  8.191035  1.912421  21.199485  11.811015  144.005942  21.338099  171.969521  -24.883834  24.750844  93.698919  31.906967  -38.799448  1.651919  20.545987  -6.052744  17.779049  68.836578  42.77669  33.120426  -20.957708  15.316566  -49.037774  91.46933  -6.005696  10.046457  -3.691022  -0.406114  -0.757686  -2.768763  -0.300023  -0.570739  
0.0  101.685394  0.0  0.707952  18.771324  -99.49181  8.274637  -23.026276  1.075689  -13.22773  17.486912  21.648843  0.92217  3.593323  3.009837  -20.791029  14.067955  -2.528693  -2.912372  4.381391  21.866216  4.277329  2.914959  -1.025839  -0.153097  -0.505245  2.980081  -0.480004  -1.359774  8.149978  -0.480004  -1.359774  8.149978  1.584492  21.229289  11.9988  144.061798  22.007692  172.052159  -25.766115  25.201758  93.396117  32.78041  -38.703491  0.302362  20.648038  -5.700971  17.269228  69.894479  41.975685  32.77978  -23.548065  14.207438  -52.627113  92.247781  -5.309163  10.145212  -3.354915  -0.39822  -0.785255  -2.516693  -0.294365  -0.591146  
